<svg width="64" height="38" viewBox="0 0 64 38" fill="none" xmlns="http://www.w3.org/2000/svg">
<path d="M60.2526 35.2263L59.6622 30.5035C59.6123 30.1003 59.3421 29.7635 58.9638 29.6305L59.3172 28.6286C59.5999 27.8221 59.5541 26.9573 59.1883 26.1882C58.9596 25.7101 58.6146 25.3152 58.203 25.0117L59.9532 15.7699C60.3648 13.5998 61.5621 11.6749 63.329 10.3529C63.645 10.1159 63.8029 9.72926 63.7447 9.34263C63.6865 8.95184 63.4163 8.62757 63.0463 8.49869L62.4934 8.30329C63.0588 7.82104 63.5036 7.20991 63.7572 6.49069C64.5388 4.27898 63.3747 1.84277 61.163 1.05703C58.9472 0.27545 56.511 1.43951 55.7294 3.65122C55.4716 4.38707 55.4425 5.14371 55.5797 5.85877L55.0185 5.65922C54.6485 5.52618 54.2369 5.61349 53.9459 5.8754C53.659 6.14147 53.5385 6.54473 53.6341 6.92305C54.1745 9.06409 53.9001 11.3132 52.8566 13.263L48.4083 21.5486C47.8928 21.5278 47.3814 21.6151 46.9033 21.8438C46.1342 22.2096 45.5522 22.8582 45.2695 23.6605L44.9161 24.6625C44.5336 24.5294 44.1096 24.6209 43.8186 24.8994L40.3929 28.2045C40.1268 28.4623 40.0146 28.8364 40.0936 29.1981C40.1726 29.5557 40.4303 29.8508 40.7795 29.9756L57.4588 35.8707H6.54378L23.2231 29.9756C23.5681 29.8508 23.83 29.5557 23.9049 29.1981C23.9839 28.8364 23.8716 28.4623 23.6055 28.2045L20.1799 24.8994C19.8889 24.6209 19.4648 24.5294 19.0865 24.6625L18.7331 23.6605C18.4463 22.8582 17.8684 22.2096 17.0951 21.8438C16.6212 21.6151 16.1057 21.5278 15.5902 21.5486L11.146 13.263C10.1025 11.3132 9.82393 9.06409 10.3685 6.92305C10.4642 6.54473 10.3436 6.14147 10.0526 5.8754C9.76156 5.61349 9.34999 5.53034 8.97998 5.65922L8.4229 5.85877C8.56009 5.14371 8.53099 4.38707 8.26907 3.65122C7.48749 1.43951 5.05544 0.279608 2.83958 1.05703C0.62371 1.84277 -0.540348 4.27898 0.245391 6.49069C0.498989 7.20991 0.943826 7.82104 1.50923 8.30329L0.95214 8.49869C0.582136 8.62757 0.316066 8.95184 0.253705 9.34263C0.195503 9.72926 0.35764 10.1159 0.66944 10.3529C2.43631 11.6749 3.63779 13.5998 4.04937 15.7699L5.79961 25.0117C5.38388 25.3152 5.03881 25.7101 4.81432 26.1882C4.44431 26.9573 4.39858 27.8221 4.68128 28.6286L5.03881 29.6305C4.65634 29.7635 4.38611 30.1003 4.33622 30.5035L3.75004 35.2263C3.72094 35.4549 3.77498 35.6753 3.88307 35.8707H0.0707822V37.9992H63.9277V35.8707H60.1154C60.2235 35.6753 60.2775 35.4549 60.2526 35.2263ZM57.7374 4.36213C58.045 3.48908 58.8682 2.94447 59.7454 2.94447C59.9782 2.94447 60.2193 2.98188 60.4521 3.06503C60.9884 3.25627 61.4166 3.6429 61.6619 4.15426C61.9072 4.66561 61.9405 5.24348 61.7492 5.77978C61.558 6.31608 61.1713 6.74844 60.66 6.99373C60.1486 7.23901 59.5708 7.26811 59.0345 7.08103V7.07687C57.9286 6.68608 57.3466 5.46798 57.7374 4.36213ZM54.7316 14.2691C55.7252 12.4108 56.1576 10.3321 55.9996 8.26588L58.3236 9.08488L60.6475 9.90803C59.2215 11.4171 58.2529 13.3046 57.8621 15.3749L56.1992 24.1386L55.5257 23.9017L50.5119 22.1265L54.7316 14.2691ZM47.8221 23.7645C48.0757 23.6398 48.3667 23.6273 48.6328 23.7229L56.6606 26.5582C56.9309 26.6538 57.1429 26.8492 57.2676 27.1028C57.3882 27.3606 57.4048 27.6516 57.3092 27.9177L56.9558 28.9196L46.92 25.3734L47.2775 24.3715C47.3689 24.1012 47.5643 23.885 47.8221 23.7645ZM44.8246 26.8908L45.2071 27.0238L57.2468 31.281C57.251 31.2851 57.251 31.281 57.251 31.2851L57.6334 31.4182L57.9245 33.7795L43.1118 28.5413L44.8246 26.8908ZM20.8866 28.5413L6.07399 33.7795L6.36917 31.4182L6.74749 31.2851C6.75164 31.281 6.75164 31.2851 6.75164 31.281L18.7913 27.0238L19.1738 26.8908L20.8866 28.5413ZM16.7251 24.3715L17.0785 25.3734L7.04681 28.9196L6.68928 27.9177C6.59366 27.6516 6.61029 27.3606 6.73501 27.1028C6.85558 26.8492 7.07176 26.6538 7.33783 26.5582L15.3657 23.7229C15.4821 23.6813 15.6026 23.6605 15.7232 23.6605C15.877 23.6605 16.035 23.6938 16.1805 23.7645C16.4341 23.885 16.6295 24.1012 16.7251 24.3715ZM3.33846 6.99373C2.82711 6.74844 2.44047 6.31608 2.24923 5.77978C2.06215 5.24348 2.09125 4.66561 2.33654 4.15426C2.58182 3.6429 3.01003 3.25627 3.54633 3.06503C3.7833 2.98188 4.02026 2.94447 4.25723 2.94447C5.13443 2.94447 5.95759 3.48908 6.26523 4.36213C6.65602 5.46798 6.07399 6.68608 4.96814 7.07687V7.08103C4.43184 7.26811 3.85397 7.23901 3.33846 6.99373ZM3.35509 9.90803L5.67489 9.08488H5.67905L7.99885 8.26588C7.84087 10.3321 8.27323 12.4108 9.271 14.2691L13.4865 22.1265L8.47279 23.9017L7.79929 24.1386L6.14051 15.3749C5.74556 13.3046 4.7769 11.4171 3.35509 9.90803Z" fill="#CB0161"/>
</svg>
