<svg width="64" height="64" viewBox="0 0 64 64" fill="none" xmlns="http://www.w3.org/2000/svg">
<path d="M59.4986 9.40919C61.9585 9.43507 63.9742 7.46143 64 5.00147C64.0259 2.54151 62.0523 0.526375 59.5923 0.500496C57.1319 0.474617 55.1167 2.44776 55.0909 4.90772C55.0772 6.19434 55.6206 7.42384 56.5811 8.27979L53.8262 13.4937C51.0957 12.4541 48.0782 12.4541 45.3477 13.4937L42.5933 8.27882C44.3911 6.65528 44.5332 3.88184 42.9097 2.0835C41.2862 0.285164 38.5127 0.143562 36.7144 1.7671C34.9165 3.39014 34.7744 6.16407 36.398 7.96192C37.2325 8.88624 38.4204 9.41261 39.6656 9.40919C39.9893 9.4087 40.312 9.37159 40.6275 9.29884L43.3579 14.4575C37.6284 17.8701 35.7495 25.2813 39.1621 31.0107C39.7598 32.0142 40.4995 32.9258 41.3589 33.7168C41.3745 33.7319 41.3902 33.7441 41.4053 33.7583C41.7788 34.1025 42.1734 34.4233 42.5865 34.7183L39.0201 41.4546C34.8042 38.3975 29.1011 38.3975 24.8858 41.4546L21.3189 34.7183C21.732 34.4229 22.1265 34.1025 22.5 33.7583C22.5157 33.7441 22.5308 33.7319 22.5464 33.7168C27.4532 29.2002 27.7691 21.561 23.2525 16.6548C22.4615 15.7954 21.5503 15.0552 20.5464 14.4575L23.2779 9.29884C23.5933 9.37159 23.916 9.4087 24.2398 9.40919C26.7002 9.43507 28.7154 7.46143 28.7412 5.00147C28.7671 2.54151 26.794 0.525886 24.3335 0.500496C21.8736 0.474617 19.8584 2.44776 19.8326 4.90772C19.8189 6.19434 20.3618 7.42384 21.3223 8.27979L18.5611 13.4946C15.8316 12.4546 12.8145 12.4546 10.0845 13.4946L7.32474 8.27979C9.12357 6.65723 9.26614 3.88331 7.64359 2.08497C6.02054 0.28614 3.2471 0.143074 1.44827 1.76563C-0.350554 3.38868 -0.493132 6.16212 1.12943 7.96095C1.96585 8.88819 3.15823 9.41505 4.40677 9.40919C4.7305 9.4087 5.05325 9.37159 5.36868 9.29884L8.10013 14.4575C2.37113 17.8711 0.493684 25.2822 3.90677 31.0112C4.50394 32.0132 5.24271 32.9233 6.10062 33.7134C6.11575 33.7285 6.13138 33.7407 6.14652 33.7554C9.73636 37.0781 14.982 37.895 19.4117 35.8198L23.1797 42.939C18.5386 47.7481 18.6748 55.4092 23.4839 60.0503C28.1104 64.5156 35.4214 64.5825 40.1294 60.2036C40.1446 60.1895 40.1602 60.1773 40.1758 60.1616C45.0791 55.6533 45.3994 48.0239 40.8916 43.1201C40.8369 43.061 40.7823 43.0024 40.7266 42.9443L44.4961 35.8242C48.9253 37.8989 54.1695 37.0825 57.7588 33.7598C57.774 33.7451 57.7896 33.7329 57.8047 33.7178C62.7163 29.1899 63.0274 21.5386 58.4995 16.627C57.7134 15.7744 56.8091 15.0396 55.814 14.4443L58.5367 9.29884C58.8521 9.3711 59.1748 9.40821 59.4986 9.40919ZM37.4619 5.00196C37.4619 3.78468 38.4483 2.79835 39.6656 2.79835C40.8828 2.79835 41.8692 3.78468 41.8692 5.00196C41.8692 6.21876 40.8828 7.20557 39.6656 7.20557C38.4483 7.20557 37.4619 6.21876 37.4619 5.00196ZM24.2398 2.79835C25.4571 2.79835 26.4434 3.78468 26.4434 5.00196C26.4434 6.21876 25.4571 7.20557 24.2398 7.20557C23.023 7.20557 22.0362 6.21876 22.0362 5.00196C22.0362 3.78468 23.023 2.79835 24.2398 2.79835ZM2.20316 5.00196C2.20316 3.78468 3.18997 2.79835 4.40677 2.79835C5.62405 2.79835 6.61087 3.78468 6.61087 5.00196C6.61087 6.21876 5.62405 7.20557 4.40677 7.20557C3.18997 7.20557 2.20316 6.21876 2.20316 5.00196ZM4.40677 24.835C4.39652 19.3579 8.82767 14.9097 14.3047 14.8994C19.7813 14.8892 24.2295 19.3203 24.2398 24.7969C24.2442 27.0317 23.4932 29.2026 22.1089 30.9575C21.2886 29.1128 20.0752 27.4688 18.5533 26.1416C20.5171 23.8057 20.2159 20.3203 17.8799 18.356C15.544 16.3921 12.0586 16.6939 10.0948 19.0293C8.36624 21.085 8.36624 24.0859 10.0948 26.1416C8.5723 27.4702 7.35843 29.1148 6.53812 30.9609C5.15726 29.2178 4.40628 27.0586 4.40677 24.835ZM11.1724 23.6226C10.6231 21.8818 11.5894 20.0254 13.3306 19.4761C15.0718 18.9273 16.9283 19.8936 17.4771 21.6348C18.0264 23.376 17.0596 25.2324 15.3189 25.7813C15.3174 25.7817 15.3164 25.7822 15.315 25.7822C13.5747 26.3291 11.7207 25.3623 11.1724 23.6226ZM8.20706 32.6245L8.36234 32.2378C9.10013 30.4033 10.2925 28.7861 11.8267 27.5386C13.3824 28.3662 15.2486 28.3633 16.8013 27.5308C18.3443 28.7778 19.543 30.398 20.2842 32.2378L20.4395 32.625C16.8555 35.459 11.7935 35.459 8.2095 32.625H8.20706V32.6245ZM25.9732 59.1714C26.149 59.0498 26.2852 58.8799 26.3653 58.6821C27.086 56.9014 28.2349 55.3262 29.7105 54.0962C31.2159 54.7881 32.9576 54.7422 34.4243 53.9717C35.9693 55.2192 37.1704 56.8403 37.9136 58.6821L38.0689 59.0689C34.5352 61.8657 29.5537 61.9077 25.9732 59.1714ZM31.9527 52.3804C30.127 52.3804 28.647 50.9004 28.647 49.0752C28.647 47.2495 30.127 45.7695 31.9527 45.7695C33.7784 45.7695 35.2583 47.2495 35.2583 49.0752C35.2583 50.9004 33.7784 52.3804 31.9527 52.3804ZM39.7383 57.4014C38.916 55.5518 37.6983 53.9048 36.1704 52.5767C36.9995 51.5977 37.4566 50.3579 37.4619 49.0752C37.4795 46.0327 35.0279 43.5518 31.9849 43.5337C28.9424 43.5161 26.4615 45.9678 26.4439 49.0107C26.4356 50.3999 26.9527 51.7407 27.8916 52.7651C26.3804 54.1309 25.189 55.813 24.4019 57.6914C20.8506 53.522 21.3521 47.2632 25.5215 43.7119C29.691 40.1611 35.9497 40.6621 39.501 44.8316C42.565 48.4297 42.6646 53.6904 39.7383 57.4014ZM43.4659 32.6245L43.6211 32.2378C44.3653 30.397 45.5679 28.7764 47.1138 27.5298C48.6582 28.3433 50.5039 28.3433 52.0479 27.5298C53.5952 28.7754 54.7984 30.3955 55.543 32.2368L55.6983 32.6235C52.1143 35.458 47.0523 35.458 43.4678 32.6235L43.4659 32.6245ZM49.5821 25.9365C47.7564 25.9365 46.2764 24.4566 46.2764 22.6314C46.2764 20.8057 47.7564 19.3257 49.5821 19.3257C51.4077 19.3257 52.8877 20.8057 52.8877 22.6314C52.8877 24.4566 51.4077 25.9365 49.5821 25.9365ZM59.4986 24.835C59.4986 27.0581 58.7476 29.2163 57.3667 30.959C56.545 29.1084 55.3277 27.4605 53.7998 26.1318C54.6289 25.1528 55.086 23.9136 55.0913 22.6314C55.0913 19.5884 52.6245 17.1221 49.5821 17.1221C46.5396 17.1221 44.0728 19.5884 44.0728 22.6314C44.0786 23.9141 44.5362 25.1538 45.3653 26.1328C43.8374 27.4605 42.6197 29.1079 41.7979 30.9575C38.4048 26.6582 39.1397 20.4229 43.439 17.0298C47.7383 13.6372 53.9737 14.3721 57.3667 18.6714C58.752 20.4268 59.503 22.5986 59.4986 24.835ZM59.4986 2.79835C60.7154 2.79835 61.7022 3.78468 61.7022 5.00196C61.7022 6.21876 60.7154 7.20557 59.4986 7.20557C58.2813 7.20557 57.295 6.21876 57.295 5.00196C57.295 3.78468 58.2813 2.79835 59.4986 2.79835Z" fill="#666666"/>
</svg>
