<svg width="50" height="50" viewBox="0 0 50 50" fill="none" xmlns="http://www.w3.org/2000/svg">
<path d="M1.00391 49.9971H48.9959C49.5489 49.9971 49.9959 49.5501 49.9959 48.9971V1.00513C49.9959 0.453127 49.5489 0.00512695 48.9959 0.00512695H1.00391C0.450906 0.00512695 0.00390625 0.453127 0.00390625 1.00513V48.9971C0.00390625 49.5501 0.450906 49.9971 1.00391 49.9971ZM4.99191 8.00013C6.64591 8.00013 7.99191 6.65413 7.99191 5.00013C7.99191 3.36213 6.67191 2.03113 5.04091 2.00513H7.99991V8.00113H2.00391V5.11613C2.06591 6.71513 3.37791 8.00013 4.99191 8.00013ZM3.99191 5.00013C3.99191 4.44913 4.43991 4.00013 4.99191 4.00013C5.54391 4.00013 5.99191 4.44913 5.99191 5.00013C5.99191 5.55113 5.54391 6.00013 4.99191 6.00013C4.43991 6.00013 3.99191 5.55113 3.99191 5.00013ZM9.99991 42.0011H12.9899C11.3409 42.0061 9.99991 43.3491 9.99991 45.0001C9.99991 46.6451 11.3299 47.9811 12.9709 47.9971H9.99991V45.0001V42.0011ZM31.9999 12.9231C31.9579 11.3081 30.6409 10.0061 29.0179 10.0011H31.9999V12.9231ZM30.0079 13.0001C30.0079 13.5511 29.5599 14.0001 29.0079 14.0001C28.4559 14.0001 28.0079 13.5511 28.0079 13.0001C28.0079 12.4491 28.4559 12.0001 29.0079 12.0001C29.5599 12.0001 30.0079 12.4491 30.0079 13.0001ZM26.0079 13.0001C26.0079 14.6541 27.3539 16.0001 29.0079 16.0001C30.6359 16.0001 31.9579 14.6951 31.9999 13.0771V16.0011H25.9999V10.0011H28.9979C27.3489 10.0061 26.0079 11.3491 26.0079 13.0001ZM39.9999 40.0011H33.9999V37.0001V34.0011H36.9899C35.3409 34.0061 33.9999 35.3491 33.9999 37.0001C33.9999 38.6541 35.3459 40.0001 36.9999 40.0001C38.6539 40.0001 39.9999 38.6541 39.9999 37.0001C39.9999 35.3491 38.6589 34.0061 37.0099 34.0011H39.9999V37.0001V40.0011ZM17.9999 34.0011H20.9899C19.3409 34.0061 17.9999 35.3491 17.9999 37.0001C17.9999 38.6541 19.3459 40.0001 20.9999 40.0001C22.6539 40.0001 23.9999 38.6541 23.9999 37.0001C23.9999 35.3491 22.6589 34.0061 21.0099 34.0011H23.9999V37.0001V40.0011H17.9999V37.0001V34.0011ZM17.9999 26.0011H23.9999V32.0011H17.9999V26.0011ZM15.9999 32.0011H9.99991V26.0011H15.9999V32.0011ZM17.9999 24.0011V18.0011H23.9999V24.0011H17.9999ZM25.9999 26.0011H31.9999V32.0011H25.9999V26.0011ZM20.9999 36.0001C21.5519 36.0001 21.9999 36.4481 21.9999 37.0001C21.9999 37.5521 21.5519 38.0001 20.9999 38.0001C20.4479 38.0001 19.9999 37.5521 19.9999 37.0001C19.9999 36.4481 20.4479 36.0001 20.9999 36.0001ZM25.9999 34.0011H31.9999V40.0011H25.9999V34.0011ZM36.9999 36.0001C37.5519 36.0001 37.9999 36.4481 37.9999 37.0001C37.9999 37.5521 37.5519 38.0001 36.9999 38.0001C36.4479 38.0001 35.9999 37.5521 35.9999 37.0001C35.9999 36.4481 36.4479 36.0001 36.9999 36.0001ZM33.9999 32.0011V26.0011H39.9999V32.0011H33.9999ZM41.9999 26.0011H47.9959V32.0011H41.9999V26.0011ZM41.9999 24.0011V18.0011H47.9959V24.0011H41.9999ZM39.9999 24.0011H33.9999V18.0011H39.9999V24.0011ZM31.9999 24.0011H25.9999V18.0011H31.9999V24.0011ZM23.9999 16.0011H17.9999V10.0011H23.9999V16.0011ZM15.9999 12.9231C15.9579 11.3081 14.6409 10.0061 13.0179 10.0011H15.9999V12.9231ZM14.0079 13.0001C14.0079 13.5511 13.5599 14.0001 13.0079 14.0001C12.4559 14.0001 12.0079 13.5511 12.0079 13.0001C12.0079 12.4491 12.4559 12.0001 13.0079 12.0001C13.5599 12.0001 14.0079 12.4491 14.0079 13.0001ZM10.0079 13.0001C10.0079 14.6541 11.3539 16.0001 13.0079 16.0001C14.6359 16.0001 15.9579 14.6951 15.9999 13.0771V16.0011H9.99991V10.0011H12.9979C11.3489 10.0061 10.0079 11.3491 10.0079 13.0001ZM15.9999 18.0011V24.0011H9.99991V18.0011H15.9999ZM7.99991 24.0011H2.00391V18.0011H7.99991V24.0011ZM7.99991 26.0011V32.0011H2.00391V26.0011H7.99991ZM4.98991 34.0011C3.35291 34.0061 2.02491 35.3281 2.00391 36.9611V34.0011H4.98991ZM4.99991 36.0001C5.55191 36.0001 5.99991 36.4481 5.99991 37.0001C5.99991 37.5521 5.55191 38.0001 4.99991 38.0001C4.44791 38.0001 3.99991 37.5521 3.99991 37.0001C3.99991 36.4481 4.44791 36.0001 4.99991 36.0001ZM2.00391 37.0391C2.02491 38.6751 3.35891 40.0001 4.99991 40.0001C6.65391 40.0001 7.99991 38.6541 7.99991 37.0001C7.99991 35.3491 6.65891 34.0061 5.00991 34.0011H7.99991V37.0001V40.0011H2.00391V37.0391ZM9.99991 34.0011H15.9999V40.0011H9.99991V34.0011ZM12.9999 44.0001C13.5519 44.0001 13.9999 44.4481 13.9999 45.0001C13.9999 45.5521 13.5519 46.0001 12.9999 46.0001C12.4479 46.0001 11.9999 45.5521 11.9999 45.0001C11.9999 44.4481 12.4479 44.0001 12.9999 44.0001ZM15.9999 45.0001C15.9999 43.3491 14.6589 42.0061 13.0099 42.0011H15.9999V45.0001V47.9971H13.0289C14.6699 47.9811 15.9999 46.6451 15.9999 45.0001ZM17.9999 42.0011H23.9999V47.9971H17.9999V42.0011ZM25.9999 45.0001V42.0011H28.9899C27.3409 42.0061 25.9999 43.3491 25.9999 45.0001C25.9999 46.6451 27.3299 47.9811 28.9709 47.9971H25.9999V45.0001ZM28.9999 44.0001C29.5519 44.0001 29.9999 44.4481 29.9999 45.0001C29.9999 45.5521 29.5519 46.0001 28.9999 46.0001C28.4479 46.0001 27.9999 45.5521 27.9999 45.0001C27.9999 44.4481 28.4479 44.0001 28.9999 44.0001ZM31.9999 45.0001C31.9999 43.3491 30.6589 42.0061 29.0099 42.0011H31.9999V45.0001V47.9971H29.0289C30.6699 47.9811 31.9999 46.6451 31.9999 45.0001ZM33.9999 42.0011H39.9999V47.9971H33.9999V42.0011ZM41.9999 45.0001V42.0011H44.9899C43.3409 42.0061 41.9999 43.3491 41.9999 45.0001C41.9999 46.6451 43.3299 47.9811 44.9709 47.9971H41.9999V45.0001ZM43.9999 45.0001C43.9999 44.4481 44.4479 44.0001 44.9999 44.0001C45.5519 44.0001 45.9999 44.4481 45.9999 45.0001C45.9999 45.5521 45.5519 46.0001 44.9999 46.0001C44.4479 46.0001 43.9999 45.5521 43.9999 45.0001ZM45.0099 42.0011H47.9959V44.9611C47.9749 43.3281 46.6459 42.0061 45.0099 42.0011ZM41.9999 40.0011V34.0011H47.9959V40.0011H41.9999ZM47.9959 12.8841C47.9329 11.2881 46.6279 10.0071 45.0169 10.0011H47.9959V12.8841ZM46.0079 13.0001C46.0079 13.5511 45.5599 14.0001 45.0079 14.0001C44.4559 14.0001 44.0079 13.5511 44.0079 13.0001C44.0079 12.4491 44.4559 12.0001 45.0079 12.0001C45.5599 12.0001 46.0079 12.4491 46.0079 13.0001ZM42.0079 13.0001C42.0079 14.6541 43.3539 16.0001 45.0079 16.0001C46.6219 16.0001 47.9339 14.7151 47.9959 13.1161V16.0011H41.9999V10.0011H44.9979C43.3489 10.0061 42.0079 11.3491 42.0079 13.0001ZM39.9999 16.0011H33.9999V10.0011H39.9999V16.0011ZM33.9999 8.00113V5.07713C34.0419 6.69513 35.3639 8.00013 36.9919 8.00013C38.6459 8.00013 39.9919 6.65413 39.9919 5.00013C39.9919 3.36213 38.6719 2.03113 37.0409 2.00513H39.9999V8.00113H33.9999ZM35.9919 5.00013C35.9919 4.44913 36.4399 4.00013 36.9919 4.00013C37.5439 4.00013 37.9919 4.44913 37.9919 5.00013C37.9919 5.55113 37.5439 6.00013 36.9919 6.00013C36.4399 6.00013 35.9919 5.55113 35.9919 5.00013ZM33.9999 4.92313V2.00513H36.9429C35.3389 2.03113 34.0419 3.32113 33.9999 4.92313ZM31.9999 8.00113H25.9999V2.00513H31.9999V8.00113ZM23.9999 8.00113H17.9999V5.07713C18.0419 6.69513 19.3639 8.00013 20.9919 8.00013C22.6459 8.00013 23.9919 6.65413 23.9919 5.00013C23.9919 3.36213 22.6719 2.03113 21.0409 2.00513H23.9999V8.00113ZM19.9919 5.00013C19.9919 4.44913 20.4399 4.00013 20.9919 4.00013C21.5439 4.00013 21.9919 4.44913 21.9919 5.00013C21.9919 5.55113 21.5439 6.00013 20.9919 6.00013C20.4399 6.00013 19.9919 5.55113 19.9919 5.00013ZM17.9999 4.92313V2.00513H20.9429C19.3389 2.03113 18.0419 3.32113 17.9999 4.92313ZM15.9999 8.00113H9.99991V2.00513H15.9999V8.00113ZM7.99991 10.0011V16.0011H2.00391V10.0011H7.99991ZM2.00391 42.0011H7.99991V47.9971H2.00391V42.0011ZM45.0289 47.9971C46.6559 47.9811 47.9739 46.6651 47.9959 45.0391V47.9971H45.0289ZM47.9959 8.00113H41.9999V2.00513H47.9959V8.00113ZM4.94291 2.00513C3.35091 2.03113 2.06491 3.30113 2.00391 4.88413V2.00513H4.94291Z" fill="#154E71"/>
</svg>
