<svg width="173" height="108" viewBox="0 0 173 108" fill="none" xmlns="http://www.w3.org/2000/svg">
<path d="M81.7431 33.3328C81.7582 34.5609 82.0918 35.4403 82.7589 35.9861C83.4108 36.5167 84.3964 36.7896 85.7154 36.7896C87.0193 36.7896 88.0048 36.5167 88.672 35.9861C89.3239 35.4403 89.6726 34.5609 89.6726 33.3328C89.7029 30.3611 89.718 27.4046 89.7484 24.4329C88.49 24.4178 87.2467 24.4178 85.9883 24.4178C85.9883 21.4461 85.9883 18.4896 85.9883 15.5179C92.7049 15.5179 99.4216 15.6543 106.123 15.9424C105.744 24.9787 105.35 34.015 104.971 43.0513C104.743 48.4792 102.909 52.391 99.558 54.8623C96.2073 57.3337 91.3556 58.4859 84.9119 58.5162C81.8189 58.5314 78.8169 58.3949 75.9059 58.122C72.9948 57.8491 70.5235 57.5155 68.4767 57.091C68.3554 54.1193 68.2341 51.1628 68.1128 48.1912C70.5538 48.4489 72.8584 48.646 75.0265 48.7521C77.2098 48.8583 79.6811 48.8886 82.4406 48.8735C84.8058 48.8583 86.5948 48.555 87.7774 47.9637C88.9752 47.3724 89.5665 46.1595 89.5816 44.3098C89.5816 43.5517 89.5968 42.7936 89.5968 42.0355C89.051 42.5056 88.4446 42.9908 87.7471 43.4911C87.0497 43.9914 86.2613 44.4614 85.3819 44.9011C84.5025 45.3408 83.4867 45.7198 82.3344 46.0231C81.1821 46.3415 79.863 46.5082 78.362 46.5385C74.7384 46.5991 71.8577 45.644 69.6745 43.5971C67.4912 41.5655 66.2631 38.2906 66.066 33.7724C65.9295 30.8008 65.8082 27.8443 65.6718 24.8726C64.6559 24.9181 63.6401 24.9635 62.6091 25.0242C62.4575 22.0676 62.3059 19.096 62.1543 16.1395C68.6283 15.8059 75.1023 15.6088 81.5763 15.5481C81.637 21.4763 81.6824 27.4046 81.7431 33.3328ZM131.291 44.3098C130.852 44.704 130.26 45.1285 129.548 45.5833C128.835 46.0382 127.971 46.4324 126.985 46.7811C126 47.1299 124.863 47.4027 123.574 47.5998C122.285 47.7969 120.86 47.8424 119.268 47.7212C115.432 47.4331 112.491 46.5234 110.399 44.9617C108.306 43.4001 107.306 41.2471 107.442 38.5029C107.609 35.0763 109.731 32.5595 113.886 31.0585C118.04 29.5575 124.362 29.1027 132.762 29.9669C132.868 28.9662 132.535 28.1475 131.761 27.5259C130.988 26.9042 129.305 26.4646 126.712 26.2372C123.938 25.9946 121.133 25.9339 118.313 26.0552C115.493 26.1917 112.9 26.3887 110.52 26.6616C110.687 23.5535 110.853 20.4454 111.02 17.3373C113.446 16.9583 116.418 16.6853 119.95 16.564C123.468 16.4428 127.076 16.5488 130.761 16.8976C134.536 17.2614 137.659 17.8679 140.115 18.7018C142.572 19.5357 144.467 20.597 145.831 21.8858C147.181 23.1745 148.045 24.6755 148.424 26.3887C148.803 28.102 148.848 30.0275 148.545 32.1805C148.136 35.1218 147.742 38.0632 147.332 41.0046C148.318 41.141 149.303 41.2774 150.289 41.429C149.864 44.3704 149.44 47.2966 149.015 50.2379C142.996 49.3737 136.977 48.6309 130.943 48.0092C131.049 46.7508 131.17 45.5379 131.291 44.3098ZM132.216 35.3492C129.411 35.0611 127.364 35.0309 126.121 35.228C124.863 35.4251 124.211 35.9103 124.15 36.6684C124.059 37.8206 125.242 38.5029 127.713 38.7303C130.457 38.9881 131.943 37.9874 132.186 35.6828C132.186 35.5615 132.201 35.4554 132.216 35.3492ZM19.444 63.5499C24.9628 62.625 30.4968 61.8214 36.0459 61.124C36.4098 64.0653 36.7737 67.0067 37.1528 69.9632C36.2886 70.0694 35.4092 70.1907 34.545 70.2968C35.3789 76.6041 36.1976 82.9264 37.0315 89.2337C37.3802 91.887 37.3347 94.2067 36.895 96.1777C36.4553 98.1487 35.6518 99.8165 34.4692 101.196C33.2866 102.576 31.7704 103.683 29.9055 104.547C28.0406 105.411 25.8574 106.048 23.3406 106.488C20.9602 106.912 18.5191 107.17 16.0175 107.306C13.5006 107.428 11.5296 107.428 10.1044 107.246C9.48282 104.35 8.86117 101.439 8.23955 98.5429C9.84668 98.4974 11.5903 98.3913 13.44 98.2093C15.3049 98.0425 17.1394 97.7848 18.9436 97.4664C21.1269 97.0722 22.6128 96.4658 23.4012 95.6622C24.1896 94.8435 24.4625 93.6154 24.1896 91.9779C24.0683 91.2047 23.9319 90.4466 23.8106 89.6733C23.5376 90.1585 23.1738 90.7044 22.7037 91.326C22.2337 91.9324 21.6576 92.5237 21.0056 93.0847C20.3537 93.6457 19.5956 94.146 18.7466 94.616C17.8824 95.086 16.9423 95.4196 15.9113 95.6167C12.0603 96.3596 8.92183 95.6015 6.45049 93.297C3.97914 90.9924 2.17493 87.4143 1.06813 82.5019C-0.0235054 77.5895 0.0977691 73.5717 1.52296 70.4332C2.94815 67.2948 5.76823 65.2783 9.96799 64.4747C11.09 64.2625 12.1816 64.217 13.2277 64.3383C14.2739 64.4596 15.2139 64.6718 16.0781 64.9599C16.9423 65.248 17.7156 65.5967 18.3979 66.0212C19.0801 66.4306 19.6411 66.8248 20.0808 67.2038C19.8533 65.9757 19.6563 64.7628 19.444 63.5499ZM15.6839 82.2896C15.9113 83.5026 16.351 84.3213 17.003 84.7458C17.6549 85.1855 18.5343 85.2916 19.6411 85.0945C20.7479 84.8974 21.5363 84.488 21.9911 83.8664C22.4612 83.2448 22.5825 82.32 22.3854 81.1071C22.0821 79.318 21.7941 77.544 21.4908 75.755C21.2937 74.542 20.854 73.7081 20.2021 73.2684C19.535 72.8288 18.6404 72.7075 17.4881 72.9046C16.351 73.1017 15.5323 73.5262 15.0623 74.163C14.5923 74.7998 14.471 75.7247 14.6984 76.9376C15.0168 78.7419 15.3504 80.5157 15.6839 82.2896ZM60.8352 85.3675C60.5168 85.8223 60.0923 86.3377 59.5616 86.8987C59.031 87.4597 58.379 87.9904 57.6058 88.4908C56.8325 88.9911 55.9228 89.4308 54.8767 89.825C53.8305 90.2192 52.6328 90.4769 51.2834 90.6133C48.0237 90.9166 45.4007 90.4769 43.3993 89.2488C41.398 88.0208 40.2003 86.0497 39.8667 83.3206C39.4422 79.9092 40.837 77.1195 44.1119 74.9969C47.3717 72.8743 52.6479 71.4642 59.88 70.979C59.8194 69.9632 59.41 69.2203 58.6519 68.72C57.8938 68.2348 56.408 68.068 54.1793 68.2348C51.7989 68.4319 49.4185 68.8109 47.0533 69.3719C44.6881 69.9329 42.52 70.5394 40.549 71.161C40.1851 68.0681 39.8364 64.975 39.4725 61.8821C41.4738 61.1391 43.9603 60.4266 46.932 59.7443C49.9037 59.0772 52.9815 58.6223 56.1503 58.3797C59.41 58.1371 62.1543 58.2433 64.3527 58.6678C66.5511 59.0923 68.3251 59.8353 69.6745 60.8814C71.0087 61.9276 71.9638 63.277 72.54 64.8993C73.1161 66.5216 73.4345 68.4319 73.5103 70.6C73.6013 73.5717 73.7074 76.5283 73.7984 79.4999C74.6475 79.4696 75.4965 79.4544 76.3456 79.4241C76.4214 82.3957 76.4972 85.3522 76.573 88.3239C71.4029 88.4604 66.2479 88.6879 61.093 89.0366C61.002 87.8236 60.911 86.5956 60.8352 85.3675ZM60.2287 76.3766C57.8181 76.5433 56.1048 76.8315 55.0738 77.2257C54.0428 77.6199 53.5728 78.196 53.6334 78.954C53.7396 80.1063 54.8312 80.5916 56.9538 80.4248C59.3039 80.2428 60.3955 79.0147 60.2439 76.7102C60.2439 76.5889 60.2439 76.4827 60.2287 76.3766ZM97.9812 79.4848C98.8303 79.5151 99.6793 79.5454 100.528 79.5757C100.634 76.604 100.756 73.6475 100.862 70.6759C100.907 69.4478 100.65 68.5532 100.104 67.9922C99.5428 67.4313 98.6938 67.128 97.5415 67.0977C96.3892 67.0673 95.5098 67.31 94.9185 67.8407C94.3272 68.3713 94.024 69.2507 93.9937 70.4788C93.9331 73.4504 93.8724 76.4069 93.8118 79.3786C94.6608 79.3938 95.5099 79.4089 96.3589 79.4392C96.2831 82.4109 96.2072 85.3674 96.1163 88.3391C90.1274 88.1723 84.1235 88.1572 78.1346 88.2937C78.074 85.322 78.0133 82.3655 77.9527 79.3938C78.8017 79.3786 79.6508 79.3634 80.4998 79.3483C80.4392 75.2243 80.3785 71.1004 80.3179 66.9764C79.4385 66.9916 78.5591 67.0067 77.6949 67.0219C77.6343 64.0502 77.5736 61.0937 77.513 58.122C83.0925 58.0007 88.6719 58.0007 94.2514 58.1068C94.2211 59.3349 94.206 60.563 94.1756 61.7911C94.676 61.3666 95.2217 60.8966 95.8434 60.3962C96.465 59.8807 97.1928 59.4259 98.0418 59.0166C98.8909 58.6072 99.8461 58.2736 100.923 58.0007C101.999 57.7278 103.227 57.6217 104.607 57.6975C105.987 57.7582 107.184 57.9552 108.185 58.2888C109.186 58.6223 110.05 59.0166 110.778 59.4714C111.505 59.9263 112.112 60.4418 112.597 61.0027C113.082 61.5637 113.522 62.1247 113.886 62.7008C114.523 62.2308 115.205 61.776 115.933 61.2908C116.66 60.8208 117.494 60.3963 118.449 60.0476C119.389 59.6837 120.466 59.4259 121.648 59.2591C122.831 59.0923 124.196 59.0772 125.742 59.2288C129.078 59.5623 131.594 60.9117 133.262 63.2315C134.93 65.5663 135.461 68.9777 134.9 73.4656C134.536 76.4069 134.157 79.3483 133.793 82.3048C134.642 82.4109 135.476 82.5171 136.325 82.6232C135.931 85.5646 135.552 88.5059 135.157 91.4472C129.199 90.6588 123.24 90.0221 117.252 89.5218C117.494 86.5652 117.737 83.6087 117.994 80.6521C118.844 80.728 119.693 80.7886 120.542 80.8796C120.815 77.9231 121.072 74.9666 121.345 72.0101C121.451 70.782 121.254 69.8722 120.724 69.2809C120.193 68.6896 119.359 68.3409 118.207 68.25C117.054 68.159 116.175 68.3561 115.553 68.8565C114.932 69.3568 114.583 70.2209 114.492 71.449C114.28 74.4055 114.068 77.3621 113.855 80.3338C114.704 80.3945 115.553 80.4551 116.403 80.5309C116.175 83.4874 115.933 86.4439 115.705 89.4004C109.731 88.9304 103.743 88.5968 97.7538 88.4149C97.7992 85.428 97.8903 82.4564 97.9812 79.4848ZM158.597 63.7924C161.705 64.3534 164.207 65.2631 166.087 66.4761C167.967 67.689 169.392 69.0687 170.348 70.6C171.303 72.1313 171.849 73.784 171.97 75.5124C172.106 77.2409 171.97 78.9389 171.606 80.6067C171.318 81.8803 171.045 83.1539 170.757 84.4275C164.556 83.0478 158.324 81.8045 152.063 80.728C152.048 80.8342 152.032 80.9402 152.002 81.0464C151.775 82.3351 152.002 83.3661 152.684 84.1394C153.351 84.9126 154.716 85.4887 156.778 85.8677C159.295 86.3378 161.63 86.6107 163.798 86.7017C165.966 86.7775 167.785 86.7623 169.241 86.641C168.619 89.4611 167.997 92.2963 167.361 95.1164C166.618 95.2832 165.784 95.4347 164.844 95.5409C163.904 95.6622 162.858 95.7228 161.69 95.7683C160.523 95.7987 159.219 95.7683 157.779 95.647C156.338 95.5257 154.731 95.3134 152.942 94.9799C150.38 94.5099 148.106 93.7973 146.119 92.8118C144.133 91.8263 142.496 90.5831 141.192 89.0517C139.888 87.5204 138.978 85.7314 138.448 83.6694C137.917 81.6074 137.811 79.2421 138.175 76.5888C138.523 73.9659 139.251 71.7371 140.343 69.8723C141.45 68.0225 142.89 66.5519 144.664 65.4754C146.438 64.399 148.515 63.7167 150.88 63.4437C153.23 63.186 155.808 63.2921 158.597 63.7924ZM156.869 73.2988C155.732 73.0865 154.822 73.2078 154.155 73.6475C153.488 74.0872 153.063 74.9059 152.851 76.1188C152.836 76.225 152.821 76.3311 152.79 76.4373C155.049 76.8315 157.309 77.2408 159.568 77.6654C159.583 77.5592 159.613 77.4531 159.628 77.3469C159.856 76.134 159.734 75.2092 159.28 74.5724C158.81 73.9356 158.006 73.5111 156.869 73.2988ZM62.2301 31.2253C62.0936 28.5872 61.4872 26.2977 60.4107 24.3722C59.319 22.4467 57.8181 20.8699 55.8774 19.6722C53.9367 18.4744 51.6169 17.6405 48.9333 17.2008C46.2346 16.7611 43.2629 16.7005 40.0032 17.0189C36.7434 17.3373 33.8324 17.9892 31.27 18.9444C28.7077 19.8996 26.6003 21.158 24.9325 22.7197C23.2647 24.2661 22.0821 26.1159 21.3999 28.2233C20.7176 30.3308 20.566 32.696 20.945 35.3038C21.324 37.9571 22.1428 40.1858 23.3557 42.0052C24.5686 43.8246 26.1454 45.2649 28.071 46.3414C29.9965 47.4179 32.2253 48.1305 34.7572 48.4944C37.3044 48.8583 40.0789 48.8734 43.1113 48.5702C46.1436 48.267 48.8727 47.706 51.2834 46.8569C53.7093 46.0079 55.7409 44.8859 57.4238 43.4456C59.0916 42.0204 60.35 40.292 61.1839 38.2755C62.0178 36.2438 62.3817 33.9089 62.2301 31.2253ZM41.5041 41.2319C41.6558 34.3486 38.2747 30.9675 31.3914 31.1192C38.6083 30.9069 41.6254 27.2378 41.5041 21.0064C42.2925 27.7988 45.9465 30.7856 51.617 31.1192C44.8094 31.0585 41.4435 34.4395 41.5041 41.2319ZM49.8885 10.0445C52.557 10.0293 55.0435 10.6358 57.2571 12.0913C60.9565 8.40707 65.4292 4.85927 70.6448 1.58436C68.2947 1.06886 65.8992 0.416882 62.7456 0.0378418C59.1371 3.20662 54.8918 6.67859 49.8885 10.0445Z" fill="url(#paint0_linear)"/>
<defs>
<linearGradient id="paint0_linear" x1="86.168" y1="0.0466355" x2="86.168" y2="107.404" gradientUnits="userSpaceOnUse">
<stop stop-color="#FEDD00"/>
<stop offset="1" stop-color="#F7941D"/>
</linearGradient>
</defs>
</svg>
