<svg width="32" height="32" viewBox="0 0 32 32" fill="none" xmlns="http://www.w3.org/2000/svg">
<path d="M31.7682 15.9998C31.7682 7.3053 24.6944 0.231445 15.9998 0.231445C7.3053 0.231445 0.231445 7.3053 0.231445 15.9998C0.231445 24.6944 7.3053 31.7682 15.9998 31.7682C24.6944 31.7682 31.7682 24.6944 31.7682 15.9998ZM17.8534 24.0683H17.8176H17.414V25.8823C17.414 26.6639 16.7805 27.2965 15.9998 27.2965C15.2192 27.2965 14.5856 26.6639 14.5856 25.8823V24.0683L13.9389 24.0401C12.3088 24.0278 10.7767 23.3028 9.73302 22.0507C9.23333 21.4511 9.31441 20.5592 9.91498 20.0595C10.5034 19.5684 11.3924 19.629 11.9062 20.2406C12.4153 20.8515 13.1639 21.2343 13.9596 21.2399H17.8383C18.9052 21.2418 19.7654 20.3919 19.7654 19.327C19.7654 18.272 18.9074 17.414 17.8524 17.414C16.4834 17.414 15.5931 17.414 14.1472 17.414C11.5328 17.414 9.40586 15.2871 9.40586 12.6727C9.40586 10.0573 11.5235 7.91557 14.1821 7.93132H14.5856V6.11737C14.5856 5.33578 15.2192 4.70316 15.9998 4.70316C16.7805 4.70316 17.414 5.33578 17.414 6.11737V7.93132H17.7374C19.7198 7.94527 21.47 9.04882 22.3713 10.5363C22.7918 11.1944 22.5995 12.0683 21.9404 12.4888C21.3236 12.8824 20.4463 12.7686 19.969 12.0287C19.4759 11.2575 18.6331 10.7927 17.7167 10.7852H14.1614C13.115 10.7737 12.2343 11.5957 12.2343 12.6727C12.2343 13.7277 13.0922 14.5856 14.1472 14.5856H17.8524C20.4668 14.5856 22.5938 16.7126 22.5938 19.327C22.5938 21.9452 20.4772 24.0683 17.8534 24.0683Z" fill="#CB0161"/>
</svg>
