<svg width="271" height="326" viewBox="0 0 271 326" fill="none" xmlns="http://www.w3.org/2000/svg">
<g opacity="0.25">
<mask id="path-1-inside-1" fill="white">
<path d="M126.62 96.9973C128.054 99.4131 129.721 100.774 131.667 101.092C133.566 101.398 135.831 100.811 138.444 99.3022C141.027 97.8107 142.668 96.1428 143.383 94.3283C144.05 92.5011 143.735 90.36 142.33 87.9268C138.991 82.0044 135.639 76.1294 132.3 70.2071C129.789 71.6165 127.326 73.0386 124.833 74.4781C121.433 68.5904 118.052 62.7327 114.652 56.845C127.96 49.162 141.423 41.7491 155.03 34.6542C164.616 52.9912 174.171 71.3456 183.757 89.6826C189.515 100.697 190.355 110.546 186.543 119.275C182.731 128.004 174.437 135.837 161.705 143.268C155.594 146.836 149.49 149.999 143.411 152.789C137.331 155.578 132.053 157.744 127.512 159.244C123.872 153.495 120.25 147.776 116.611 142.027C121.742 139.746 126.533 137.5 130.95 135.23C135.397 132.943 140.328 130.176 145.778 126.99C150.447 124.254 153.645 121.607 155.311 119.083C157.008 116.541 156.792 113.461 154.706 109.779C153.839 108.277 153.002 106.758 152.135 105.256C151.591 106.812 150.945 108.467 150.135 110.256C149.326 112.045 148.301 113.878 147.062 115.755C145.823 117.632 144.244 119.545 142.307 121.464C140.389 123.413 137.966 125.252 135.027 127.029C127.917 131.294 121.117 132.697 114.45 131.139C107.8 129.611 101.621 124.527 96.0618 115.801C92.3922 110.07 88.7699 104.351 85.1003 98.6191C83.1397 99.8712 81.1791 101.123 79.2058 102.423C75.5235 96.7385 71.8238 91.0243 68.1415 85.3401C80.5867 77.2736 93.1881 69.4775 105.946 61.9518C112.847 73.6278 119.718 85.3213 126.62 96.9973ZM237.345 62.0681C236.924 63.3521 236.238 64.8695 235.347 66.5858C234.455 68.3021 233.194 70.0717 231.64 71.8899C230.087 73.7082 228.146 75.5495 225.818 77.4142C223.49 79.2789 220.718 80.9994 217.426 82.5801C209.496 86.3972 202.628 87.9593 196.696 87.2587C190.764 86.558 186.319 83.437 183.45 77.8438C179.861 70.8642 181.188 63.4497 187.701 55.7237C194.215 47.9978 206.221 39.8644 223.852 31.9685C222.917 29.8645 221.32 28.624 219.077 28.2769C216.834 27.9298 212.996 28.9839 207.6 31.499C201.825 34.1922 196.198 37.2805 190.75 40.7466C185.318 44.2428 180.407 47.5989 176.003 50.8625C172.778 44.5137 169.553 38.1649 166.328 31.8161C170.701 28.2902 176.277 24.3502 183.137 20.0689C189.967 15.8049 197.238 11.8874 204.937 8.36393C212.833 4.76642 219.714 2.39533 225.535 1.23789C231.355 0.0804487 236.324 0.0153886 240.502 1.00783C244.649 2.01763 248.078 4.00293 250.789 6.9638C253.5 9.92467 255.793 13.6876 257.655 18.3001C260.208 24.596 262.792 30.8745 265.345 37.1704C267.454 36.3135 269.563 35.4564 271.689 34.6295C274.212 40.9427 276.718 47.2259 279.242 53.5392C266.327 58.7122 253.552 64.1256 240.885 69.7966C239.656 67.1819 238.509 64.64 237.345 62.0681ZM228.927 43.2569C223.04 45.8946 218.95 48.1759 216.713 49.9886C214.445 51.8186 213.708 53.5257 214.455 55.097C215.593 57.4841 218.716 57.483 223.873 55.1066C229.605 52.4782 231.404 48.7959 229.249 43.9524C229.11 43.7121 229.018 43.4845 228.927 43.2569ZM37.753 228.129C47.6294 219.984 57.6744 212.061 67.871 204.332C71.9566 209.743 76.0421 215.154 80.1751 220.579C78.5842 221.777 76.9807 223.024 75.3899 224.223C84.2568 235.765 93.1111 247.355 101.978 258.897C105.704 263.755 108.267 268.403 109.651 272.812C111.034 277.22 111.35 281.443 110.585 285.529C109.82 289.616 108.082 293.543 105.376 297.388C102.67 301.234 99.0727 304.993 94.5891 308.743C90.3586 312.307 85.817 315.61 81.0166 318.742C76.1688 321.861 72.2637 324.116 69.2319 325.386C64.6878 320.359 60.1262 315.303 55.5821 310.276C58.7142 308.348 62.0473 306.143 65.504 303.667C69.0081 301.203 72.3479 298.594 75.5584 295.899C79.4332 292.621 81.6833 289.719 82.3261 287.226C82.9516 284.702 82.0876 281.956 79.6739 279.024C78.549 277.631 77.4115 276.285 76.2867 274.892C76.3009 276.165 76.2044 277.663 75.9842 279.432C75.7467 281.171 75.2816 283.002 74.6316 284.859C73.9816 286.716 73.052 288.575 71.9074 290.477C70.7329 292.397 69.2518 294.133 67.4346 295.703C60.6545 301.58 53.5692 303.668 46.0367 301.929C38.5041 300.19 30.8365 295.165 23.0244 286.698C15.2423 278.214 10.8866 270.115 10.1203 262.266C9.35394 254.418 12.6346 247.197 20.0363 240.801C22.0164 239.097 24.1273 237.758 26.3388 236.802C28.5502 235.845 30.6554 235.191 32.6972 234.773C34.739 234.355 36.6699 234.161 38.5072 234.222C40.3273 234.253 41.8896 234.392 43.1943 234.64C41.3389 232.467 39.561 230.289 37.753 228.129ZM51.7394 269.559C53.5775 271.702 55.3851 272.821 57.1624 272.916C58.9571 273.041 60.8208 272.246 62.7882 270.589C64.7556 268.933 65.8493 267.22 66.0394 265.468C66.2596 263.699 65.4421 261.728 63.6641 259.55C61.0168 256.352 58.4169 253.167 55.7696 249.969C53.9916 247.791 52.1666 246.642 50.3719 246.517C48.5472 246.409 46.6362 247.192 44.5786 248.9C42.5512 250.592 41.4147 252.369 41.2119 254.169C41.009 255.968 41.8267 257.939 43.6648 260.082C46.3594 263.293 49.0494 266.426 51.7394 269.559ZM144.717 224.009C144.607 225.274 144.355 226.781 143.946 228.499C143.536 230.218 142.851 232.015 141.892 233.891C140.932 235.767 139.632 237.678 138.011 239.656C136.389 241.634 134.311 243.514 131.793 245.328C125.682 249.658 119.982 251.787 114.612 251.643C109.242 251.499 104.614 248.964 100.831 243.939C96.0882 237.666 95.6606 230.543 99.7211 222.591C103.751 214.657 112.592 205.828 126.366 196.594C125.084 194.65 123.423 193.647 121.349 193.523C119.292 193.429 116.157 194.798 111.932 197.678C107.441 200.791 103.159 204.265 99.1143 208.082C95.0699 211.899 91.4681 215.581 88.274 219.067C84.0151 213.355 79.7861 207.626 75.5271 201.914C78.6425 198.153 82.7539 193.897 87.8611 189.146C92.9858 184.425 98.5634 180.003 104.564 175.897C110.745 171.688 116.304 168.759 121.145 167.086C125.986 165.412 130.351 164.855 134.221 165.384C138.061 165.93 141.497 167.511 144.494 170.067C147.491 172.622 150.307 176.042 152.938 180.251C156.517 186.035 160.11 191.771 163.689 197.555C165.337 196.524 167.001 195.522 168.649 194.491C172.198 200.292 175.731 206.063 179.28 211.864C169.193 218.048 159.239 224.396 149.425 230.983C147.857 228.684 146.272 226.355 144.717 224.009ZM133.231 206.889C128.646 209.977 125.581 212.507 123.989 214.468C122.397 216.428 122.125 218.107 123.112 219.54C124.641 221.701 127.359 221.414 131.373 218.656C135.821 215.607 136.579 211.925 133.643 207.532C133.504 207.292 133.382 207.082 133.231 206.889ZM211.584 169.862C213.301 168.951 215.018 168.04 216.735 167.129C213.546 161.12 210.404 155.123 207.215 149.114C205.901 146.629 204.367 145.152 202.644 144.665C200.891 144.195 198.861 144.565 196.544 145.823C194.226 147.081 192.761 148.568 192.197 150.296C191.632 152.023 192.038 154.112 193.382 156.58C196.661 162.537 199.923 168.464 203.202 174.421C204.902 173.48 206.601 172.539 208.318 171.628C211.567 177.602 214.799 183.547 218.018 189.538C205.962 196.059 194.049 202.897 182.339 210.018C178.82 204.199 175.318 198.411 171.798 192.593C173.463 191.591 175.128 190.59 176.793 189.589C171.955 181.487 167.118 173.386 162.28 165.285C160.556 166.321 158.831 167.357 157.136 168.375C153.616 162.557 150.114 156.769 146.595 150.95C157.51 144.328 168.565 137.945 179.741 131.773C181.085 134.241 182.46 136.692 183.805 139.16C184.311 137.746 184.854 136.191 185.514 134.488C186.156 132.756 187.077 131.022 188.291 129.24C189.505 127.458 191.016 125.704 192.837 123.932C194.657 122.16 196.969 120.545 199.789 119.117C202.592 117.659 205.191 116.679 207.555 116.195C209.919 115.712 212.082 115.504 214.045 115.573C216.007 115.641 217.798 115.969 219.401 116.526C221.004 117.082 222.517 117.691 223.897 118.416C224.621 116.756 225.452 115.075 226.339 113.281C227.243 111.517 228.41 109.722 229.904 107.939C231.35 106.142 233.188 104.4 235.34 102.717C237.492 101.034 240.178 99.4429 243.416 97.9743C250.406 94.8196 256.936 94.6143 262.894 97.3025C268.869 100.021 273.823 106.173 277.845 115.706C280.488 121.95 283.102 128.211 285.763 134.485C287.567 133.724 289.34 132.981 291.144 132.22C293.727 138.498 296.341 144.759 298.924 151.038C286.217 156.292 273.683 161.846 261.246 167.705C258.344 161.57 255.443 155.435 252.572 149.282C254.341 148.461 256.092 147.61 257.879 146.819C255.037 140.649 252.166 134.497 249.325 128.327C248.13 125.773 246.699 124.195 244.971 123.631C243.244 123.066 241.193 123.329 238.805 124.467C236.418 125.605 234.902 127.002 234.242 128.704C233.583 130.406 233.881 132.517 235.105 135.055C238.067 141.155 241.028 147.256 244.007 153.386C245.758 152.535 247.51 151.684 249.279 150.863C252.21 156.981 255.112 163.116 258.043 169.234C245.67 175.136 233.423 181.325 221.349 187.816C218.022 181.846 214.804 175.854 211.584 169.862ZM313.731 69.4334C320.531 66.9895 326.528 65.9303 331.641 66.1829C336.753 66.4355 341.155 67.5387 344.799 69.4801C348.443 71.4214 351.415 74.0715 353.632 77.3572C355.88 80.6256 357.552 84.146 358.739 87.8666C359.625 90.7194 360.541 93.555 361.427 96.4078C347.563 100.768 333.794 105.432 320.157 110.462C320.248 110.69 320.34 110.917 320.401 111.162C321.424 113.976 323.054 115.759 325.291 116.51C327.497 117.279 330.859 116.86 335.378 115.252C340.902 113.304 345.841 111.174 350.24 108.874C354.623 106.544 358.21 104.433 360.955 102.528C362.949 108.826 364.961 115.155 366.925 121.47C365.644 122.651 364.165 123.905 362.424 125.19C360.701 126.506 358.697 127.823 356.436 129.248C354.158 130.644 351.54 132.075 348.547 133.483C345.555 134.89 342.128 136.308 338.202 137.693C332.587 139.693 327.266 140.883 322.204 141.202C317.142 141.522 312.475 140.931 308.14 139.389C303.805 137.847 299.956 135.343 296.546 131.864C293.136 128.386 290.22 123.821 287.906 118.148C285.596 112.552 284.489 107.304 284.519 102.36C284.596 97.4296 285.767 92.8683 288.05 88.7063C290.334 84.5444 293.668 80.8166 298.042 77.5703C302.404 74.3715 307.632 71.6333 313.731 69.4334ZM321.181 90.2453C318.685 91.1255 317.022 92.4063 316.203 94.0405C315.384 95.6748 315.48 97.7825 316.447 100.428C316.538 100.656 316.629 100.884 316.691 101.129C321.617 99.3257 326.562 97.5525 331.523 95.8095C331.432 95.5819 331.37 95.3369 331.279 95.1093C330.342 92.446 329.044 90.7524 327.414 90.011C325.755 89.287 323.677 89.3651 321.181 90.2453ZM85.5482 115.142C82.2602 110.072 78.4397 106.229 74.1043 103.646C69.7389 101.08 64.9614 99.6725 59.7462 99.5193C54.5311 99.3662 48.9811 100.368 43.1612 102.566C37.3113 104.782 31.3542 108.061 25.26 112.421C19.1658 116.78 14.144 121.402 10.1599 126.226C6.17592 131.049 3.43995 135.953 1.92198 140.955C0.386659 145.927 0.159514 150.944 1.21845 155.9C2.27739 160.856 4.68245 165.715 8.41647 170.449C12.2025 175.272 16.374 178.751 20.8584 180.968C25.3427 183.186 30.1144 184.236 35.1608 184.166C40.2071 184.096 45.4381 182.959 50.8709 180.783C56.3338 178.59 61.8482 175.447 67.5092 171.377C73.1702 167.308 77.9357 163.075 81.7407 158.635C85.5758 154.178 88.3176 149.631 90.0044 144.852C91.6784 140.121 92.1946 135.257 91.5402 130.308C90.8683 125.328 88.9184 120.286 85.5482 115.142ZM55.9309 158.677C48.3575 144.865 37.7913 142.034 24.3269 150.208C38.3828 141.532 40.1635 130.812 32.7951 118.604C42.1269 131.16 52.783 132.898 64.3993 127.072C50.8423 134.739 48.041 145.288 55.9309 158.677ZM36.8677 87.2948C42.1372 84.2124 47.7575 82.5698 53.8082 82.9214C56.9234 71.3901 61.7267 59.2447 68.3141 46.7902C63.0683 48.457 57.5763 49.9055 50.8946 52.7619C47.3699 63.1678 42.9304 74.9029 36.8677 87.2948Z"/>
</mask>
<path d="M126.62 96.9973C128.054 99.4131 129.721 100.774 131.667 101.092C133.566 101.398 135.831 100.811 138.444 99.3022C141.027 97.8107 142.668 96.1428 143.383 94.3283C144.05 92.5011 143.735 90.36 142.33 87.9268C138.991 82.0044 135.639 76.1294 132.3 70.2071C129.789 71.6165 127.326 73.0386 124.833 74.4781C121.433 68.5904 118.052 62.7327 114.652 56.845C127.96 49.162 141.423 41.7491 155.03 34.6542C164.616 52.9912 174.171 71.3456 183.757 89.6826C189.515 100.697 190.355 110.546 186.543 119.275C182.731 128.004 174.437 135.837 161.705 143.268C155.594 146.836 149.49 149.999 143.411 152.789C137.331 155.578 132.053 157.744 127.512 159.244C123.872 153.495 120.25 147.776 116.611 142.027C121.742 139.746 126.533 137.5 130.95 135.23C135.397 132.943 140.328 130.176 145.778 126.99C150.447 124.254 153.645 121.607 155.311 119.083C157.008 116.541 156.792 113.461 154.706 109.779C153.839 108.277 153.002 106.758 152.135 105.256C151.591 106.812 150.945 108.467 150.135 110.256C149.326 112.045 148.301 113.878 147.062 115.755C145.823 117.632 144.244 119.545 142.307 121.464C140.389 123.413 137.966 125.252 135.027 127.029C127.917 131.294 121.117 132.697 114.45 131.139C107.8 129.611 101.621 124.527 96.0618 115.801C92.3922 110.07 88.7699 104.351 85.1003 98.6191C83.1397 99.8712 81.1791 101.123 79.2058 102.423C75.5235 96.7385 71.8238 91.0243 68.1415 85.3401C80.5867 77.2736 93.1881 69.4775 105.946 61.9518C112.847 73.6278 119.718 85.3213 126.62 96.9973ZM237.345 62.0681C236.924 63.3521 236.238 64.8695 235.347 66.5858C234.455 68.3021 233.194 70.0717 231.64 71.8899C230.087 73.7082 228.146 75.5495 225.818 77.4142C223.49 79.2789 220.718 80.9994 217.426 82.5801C209.496 86.3972 202.628 87.9593 196.696 87.2587C190.764 86.558 186.319 83.437 183.45 77.8438C179.861 70.8642 181.188 63.4497 187.701 55.7237C194.215 47.9978 206.221 39.8644 223.852 31.9685C222.917 29.8645 221.32 28.624 219.077 28.2769C216.834 27.9298 212.996 28.9839 207.6 31.499C201.825 34.1922 196.198 37.2805 190.75 40.7466C185.318 44.2428 180.407 47.5989 176.003 50.8625C172.778 44.5137 169.553 38.1649 166.328 31.8161C170.701 28.2902 176.277 24.3502 183.137 20.0689C189.967 15.8049 197.238 11.8874 204.937 8.36393C212.833 4.76642 219.714 2.39533 225.535 1.23789C231.355 0.0804487 236.324 0.0153886 240.502 1.00783C244.649 2.01763 248.078 4.00293 250.789 6.9638C253.5 9.92467 255.793 13.6876 257.655 18.3001C260.208 24.596 262.792 30.8745 265.345 37.1704C267.454 36.3135 269.563 35.4564 271.689 34.6295C274.212 40.9427 276.718 47.2259 279.242 53.5392C266.327 58.7122 253.552 64.1256 240.885 69.7966C239.656 67.1819 238.509 64.64 237.345 62.0681ZM228.927 43.2569C223.04 45.8946 218.95 48.1759 216.713 49.9886C214.445 51.8186 213.708 53.5257 214.455 55.097C215.593 57.4841 218.716 57.483 223.873 55.1066C229.605 52.4782 231.404 48.7959 229.249 43.9524C229.11 43.7121 229.018 43.4845 228.927 43.2569ZM37.753 228.129C47.6294 219.984 57.6744 212.061 67.871 204.332C71.9566 209.743 76.0421 215.154 80.1751 220.579C78.5842 221.777 76.9807 223.024 75.3899 224.223C84.2568 235.765 93.1111 247.355 101.978 258.897C105.704 263.755 108.267 268.403 109.651 272.812C111.034 277.22 111.35 281.443 110.585 285.529C109.82 289.616 108.082 293.543 105.376 297.388C102.67 301.234 99.0727 304.993 94.5891 308.743C90.3586 312.307 85.817 315.61 81.0166 318.742C76.1688 321.861 72.2637 324.116 69.2319 325.386C64.6878 320.359 60.1262 315.303 55.5821 310.276C58.7142 308.348 62.0473 306.143 65.504 303.667C69.0081 301.203 72.3479 298.594 75.5584 295.899C79.4332 292.621 81.6833 289.719 82.3261 287.226C82.9516 284.702 82.0876 281.956 79.6739 279.024C78.549 277.631 77.4115 276.285 76.2867 274.892C76.3009 276.165 76.2044 277.663 75.9842 279.432C75.7467 281.171 75.2816 283.002 74.6316 284.859C73.9816 286.716 73.052 288.575 71.9074 290.477C70.7329 292.397 69.2518 294.133 67.4346 295.703C60.6545 301.58 53.5692 303.668 46.0367 301.929C38.5041 300.19 30.8365 295.165 23.0244 286.698C15.2423 278.214 10.8866 270.115 10.1203 262.266C9.35394 254.418 12.6346 247.197 20.0363 240.801C22.0164 239.097 24.1273 237.758 26.3388 236.802C28.5502 235.845 30.6554 235.191 32.6972 234.773C34.739 234.355 36.6699 234.161 38.5072 234.222C40.3273 234.253 41.8896 234.392 43.1943 234.64C41.3389 232.467 39.561 230.289 37.753 228.129ZM51.7394 269.559C53.5775 271.702 55.3851 272.821 57.1624 272.916C58.9571 273.041 60.8208 272.246 62.7882 270.589C64.7556 268.933 65.8493 267.22 66.0394 265.468C66.2596 263.699 65.4421 261.728 63.6641 259.55C61.0168 256.352 58.4169 253.167 55.7696 249.969C53.9916 247.791 52.1666 246.642 50.3719 246.517C48.5472 246.409 46.6362 247.192 44.5786 248.9C42.5512 250.592 41.4147 252.369 41.2119 254.169C41.009 255.968 41.8267 257.939 43.6648 260.082C46.3594 263.293 49.0494 266.426 51.7394 269.559ZM144.717 224.009C144.607 225.274 144.355 226.781 143.946 228.499C143.536 230.218 142.851 232.015 141.892 233.891C140.932 235.767 139.632 237.678 138.011 239.656C136.389 241.634 134.311 243.514 131.793 245.328C125.682 249.658 119.982 251.787 114.612 251.643C109.242 251.499 104.614 248.964 100.831 243.939C96.0882 237.666 95.6606 230.543 99.7211 222.591C103.751 214.657 112.592 205.828 126.366 196.594C125.084 194.65 123.423 193.647 121.349 193.523C119.292 193.429 116.157 194.798 111.932 197.678C107.441 200.791 103.159 204.265 99.1143 208.082C95.0699 211.899 91.4681 215.581 88.274 219.067C84.0151 213.355 79.7861 207.626 75.5271 201.914C78.6425 198.153 82.7539 193.897 87.8611 189.146C92.9858 184.425 98.5634 180.003 104.564 175.897C110.745 171.688 116.304 168.759 121.145 167.086C125.986 165.412 130.351 164.855 134.221 165.384C138.061 165.93 141.497 167.511 144.494 170.067C147.491 172.622 150.307 176.042 152.938 180.251C156.517 186.035 160.11 191.771 163.689 197.555C165.337 196.524 167.001 195.522 168.649 194.491C172.198 200.292 175.731 206.063 179.28 211.864C169.193 218.048 159.239 224.396 149.425 230.983C147.857 228.684 146.272 226.355 144.717 224.009ZM133.231 206.889C128.646 209.977 125.581 212.507 123.989 214.468C122.397 216.428 122.125 218.107 123.112 219.54C124.641 221.701 127.359 221.414 131.373 218.656C135.821 215.607 136.579 211.925 133.643 207.532C133.504 207.292 133.382 207.082 133.231 206.889ZM211.584 169.862C213.301 168.951 215.018 168.04 216.735 167.129C213.546 161.12 210.404 155.123 207.215 149.114C205.901 146.629 204.367 145.152 202.644 144.665C200.891 144.195 198.861 144.565 196.544 145.823C194.226 147.081 192.761 148.568 192.197 150.296C191.632 152.023 192.038 154.112 193.382 156.58C196.661 162.537 199.923 168.464 203.202 174.421C204.902 173.48 206.601 172.539 208.318 171.628C211.567 177.602 214.799 183.547 218.018 189.538C205.962 196.059 194.049 202.897 182.339 210.018C178.82 204.199 175.318 198.411 171.798 192.593C173.463 191.591 175.128 190.59 176.793 189.589C171.955 181.487 167.118 173.386 162.28 165.285C160.556 166.321 158.831 167.357 157.136 168.375C153.616 162.557 150.114 156.769 146.595 150.95C157.51 144.328 168.565 137.945 179.741 131.773C181.085 134.241 182.46 136.692 183.805 139.16C184.311 137.746 184.854 136.191 185.514 134.488C186.156 132.756 187.077 131.022 188.291 129.24C189.505 127.458 191.016 125.704 192.837 123.932C194.657 122.16 196.969 120.545 199.789 119.117C202.592 117.659 205.191 116.679 207.555 116.195C209.919 115.712 212.082 115.504 214.045 115.573C216.007 115.641 217.798 115.969 219.401 116.526C221.004 117.082 222.517 117.691 223.897 118.416C224.621 116.756 225.452 115.075 226.339 113.281C227.243 111.517 228.41 109.722 229.904 107.939C231.35 106.142 233.188 104.4 235.34 102.717C237.492 101.034 240.178 99.4429 243.416 97.9743C250.406 94.8196 256.936 94.6143 262.894 97.3025C268.869 100.021 273.823 106.173 277.845 115.706C280.488 121.95 283.102 128.211 285.763 134.485C287.567 133.724 289.34 132.981 291.144 132.22C293.727 138.498 296.341 144.759 298.924 151.038C286.217 156.292 273.683 161.846 261.246 167.705C258.344 161.57 255.443 155.435 252.572 149.282C254.341 148.461 256.092 147.61 257.879 146.819C255.037 140.649 252.166 134.497 249.325 128.327C248.13 125.773 246.699 124.195 244.971 123.631C243.244 123.066 241.193 123.329 238.805 124.467C236.418 125.605 234.902 127.002 234.242 128.704C233.583 130.406 233.881 132.517 235.105 135.055C238.067 141.155 241.028 147.256 244.007 153.386C245.758 152.535 247.51 151.684 249.279 150.863C252.21 156.981 255.112 163.116 258.043 169.234C245.67 175.136 233.423 181.325 221.349 187.816C218.022 181.846 214.804 175.854 211.584 169.862ZM313.731 69.4334C320.531 66.9895 326.528 65.9303 331.641 66.1829C336.753 66.4355 341.155 67.5387 344.799 69.4801C348.443 71.4214 351.415 74.0715 353.632 77.3572C355.88 80.6256 357.552 84.146 358.739 87.8666C359.625 90.7194 360.541 93.555 361.427 96.4078C347.563 100.768 333.794 105.432 320.157 110.462C320.248 110.69 320.34 110.917 320.401 111.162C321.424 113.976 323.054 115.759 325.291 116.51C327.497 117.279 330.859 116.86 335.378 115.252C340.902 113.304 345.841 111.174 350.24 108.874C354.623 106.544 358.21 104.433 360.955 102.528C362.949 108.826 364.961 115.155 366.925 121.47C365.644 122.651 364.165 123.905 362.424 125.19C360.701 126.506 358.697 127.823 356.436 129.248C354.158 130.644 351.54 132.075 348.547 133.483C345.555 134.89 342.128 136.308 338.202 137.693C332.587 139.693 327.266 140.883 322.204 141.202C317.142 141.522 312.475 140.931 308.14 139.389C303.805 137.847 299.956 135.343 296.546 131.864C293.136 128.386 290.22 123.821 287.906 118.148C285.596 112.552 284.489 107.304 284.519 102.36C284.596 97.4296 285.767 92.8683 288.05 88.7063C290.334 84.5444 293.668 80.8166 298.042 77.5703C302.404 74.3715 307.632 71.6333 313.731 69.4334ZM321.181 90.2453C318.685 91.1255 317.022 92.4063 316.203 94.0405C315.384 95.6748 315.48 97.7825 316.447 100.428C316.538 100.656 316.629 100.884 316.691 101.129C321.617 99.3257 326.562 97.5525 331.523 95.8095C331.432 95.5819 331.37 95.3369 331.279 95.1093C330.342 92.446 329.044 90.7524 327.414 90.011C325.755 89.287 323.677 89.3651 321.181 90.2453ZM85.5482 115.142C82.2602 110.072 78.4397 106.229 74.1043 103.646C69.7389 101.08 64.9614 99.6725 59.7462 99.5193C54.5311 99.3662 48.9811 100.368 43.1612 102.566C37.3113 104.782 31.3542 108.061 25.26 112.421C19.1658 116.78 14.144 121.402 10.1599 126.226C6.17592 131.049 3.43995 135.953 1.92198 140.955C0.386659 145.927 0.159514 150.944 1.21845 155.9C2.27739 160.856 4.68245 165.715 8.41647 170.449C12.2025 175.272 16.374 178.751 20.8584 180.968C25.3427 183.186 30.1144 184.236 35.1608 184.166C40.2071 184.096 45.4381 182.959 50.8709 180.783C56.3338 178.59 61.8482 175.447 67.5092 171.377C73.1702 167.308 77.9357 163.075 81.7407 158.635C85.5758 154.178 88.3176 149.631 90.0044 144.852C91.6784 140.121 92.1946 135.257 91.5402 130.308C90.8683 125.328 88.9184 120.286 85.5482 115.142ZM55.9309 158.677C48.3575 144.865 37.7913 142.034 24.3269 150.208C38.3828 141.532 40.1635 130.812 32.7951 118.604C42.1269 131.16 52.783 132.898 64.3993 127.072C50.8423 134.739 48.041 145.288 55.9309 158.677ZM36.8677 87.2948C42.1372 84.2124 47.7575 82.5698 53.8082 82.9214C56.9234 71.3901 61.7267 59.2447 68.3141 46.7902C63.0683 48.457 57.5763 49.9055 50.8946 52.7619C47.3699 63.1678 42.9304 74.9029 36.8677 87.2948Z" stroke="#E5E5E5" stroke-width="4" mask="url(#path-1-inside-1)"/>
</g>
</svg>
