<svg width="73" height="48" viewBox="0 0 73 48" fill="none" xmlns="http://www.w3.org/2000/svg">
<path d="M9.92002 48C9.28574 48 8.73277 47.9675 8.22859 47.9078L6.3203 47.6747C5.18184 47.5338 4.25479 46.688 4.01083 45.5604L2.92115 40.4536C1.73931 38.9844 0.88818 37.1141 0.389422 34.8805C-0.266552 31.953 -0.0930814 29.3562 0.904434 27.1606C2.14049 24.4283 4.59633 22.5796 7.81657 21.9616C8.17437 21.8911 8.53218 21.8478 8.88999 21.8207C8.14727 20.5846 7.65393 19.1642 7.42623 17.592C7.17143 15.8301 7.29612 14.1495 7.8003 12.6099C8.33701 10.9781 9.24779 9.5523 10.5164 8.37046C11.6332 7.32957 12.9939 6.50553 14.5661 5.92003C15.9214 5.41043 17.4285 5.07429 19.044 4.91707C19.1904 4.90081 19.3422 4.88999 19.4994 4.87915L19.8789 4.62433C21.2125 3.7244 22.5028 2.72146 23.9395 1.46372L24.8448 0.666807C25.3381 0.233104 25.9724 0 26.623 0C26.7314 0 26.8398 0.00540937 26.9483 0.0216732L28.1464 0.168058C29.2957 0.309012 30.2065 0.52042 30.9437 0.68848L30.9871 0.699333C31.1498 0.737282 31.307 0.769816 31.4588 0.807765L37.9047 2.20643C38.9727 2.43955 39.7967 3.29611 39.9864 4.37494C39.9864 4.38579 39.9919 4.39663 39.9919 4.40747C41.1466 4.43458 42.2959 4.47254 43.4398 4.52133L46.1342 4.63519C46.4052 4.64603 46.6709 4.70023 46.9148 4.78697C47.2564 4.76528 47.6033 4.74904 47.9612 4.73819C48.3623 4.72193 48.7689 4.71649 49.1755 4.71649C50.276 4.71649 51.4037 4.77073 52.5313 4.87915C54.2715 5.04721 55.8057 5.35079 57.0906 5.7845C58.7061 6.33205 60.0615 7.11813 61.1186 8.12107C62.3926 9.33001 63.2275 10.7937 63.6015 12.4743C63.7587 13.1899 63.8401 13.9381 63.8455 14.7133C63.981 14.8326 64.1111 14.9735 64.2196 15.1199C64.6478 15.6946 64.8322 16.4102 64.7292 17.1204L64.0298 21.9562C65.3743 22.2977 66.567 22.7965 67.5753 23.447C68.9198 24.3144 69.9932 25.377 70.7576 26.6076C71.56 27.8979 72.0262 29.3128 72.1346 30.8037C72.2214 31.9476 72.1401 33.0915 71.8907 34.2083L70.9962 38.2037C70.8932 38.6591 70.6763 39.0766 70.3673 39.4181L70.0095 41.0499C69.7872 42.0691 68.9957 42.8606 67.9819 43.0937L66.323 43.4732C65.8785 43.5762 65.3851 43.6575 64.8593 43.7226C64.3714 43.7822 63.8455 43.8202 63.2546 43.8365C63.1028 43.8419 62.9455 43.8419 62.7829 43.8419C62.3113 43.8419 61.7962 43.8202 61.2595 43.7768C60.5656 43.7226 59.8229 43.6196 58.9934 43.4678C57.9254 43.2727 56.9225 42.9853 55.9955 42.6112C55.9684 42.6112 55.9413 42.6112 55.9142 42.6112C55.7949 42.6112 55.6811 42.6058 55.5618 42.5896L52.8891 42.2372C50.8561 41.9661 48.7852 41.7439 46.7468 41.5758L46.1992 41.5324C44.1608 41.3698 42.0899 41.2559 40.0407 41.1963L39.4931 41.18C38.3601 41.1475 37.2053 41.1366 36.0614 41.1366C35.1561 41.1366 34.2345 41.1475 33.3237 41.1638L32.7816 41.1746C31.0197 41.218 29.236 41.3047 27.4687 41.4186L26.4224 41.489C25.7068 41.7276 24.9261 41.8848 24.1075 41.9607C23.7063 41.9986 23.316 42.0149 22.9365 42.0149C22.6004 42.6926 22.183 43.3214 21.6896 43.8961C20.7626 44.9749 19.597 45.8423 18.2254 46.4766C17.1303 46.9808 15.9268 47.344 14.5498 47.588C13.4927 47.7723 12.3867 47.897 11.2645 47.9566C10.7712 47.9837 10.332 48 9.92002 48Z" fill="#262262"/>
</svg>
