<svg width="62" height="40" viewBox="0 0 62 40" fill="none" xmlns="http://www.w3.org/2000/svg">
<path d="M29.2347 12.8519C29.2401 13.291 29.3593 13.6055 29.5979 13.8006C29.831 13.9904 30.1834 14.088 30.655 14.088C31.1213 14.088 31.4736 13.9904 31.7122 13.8006C31.9453 13.6055 32.07 13.291 32.07 12.8519C32.0808 11.7893 32.0862 10.7322 32.0971 9.66963C31.6471 9.66421 31.2026 9.66421 30.7526 9.66421C30.7526 8.60163 30.7526 7.54449 30.7526 6.48192C33.1542 6.48192 35.5559 6.53069 37.9521 6.6337C37.8165 9.86478 37.6756 13.0959 37.5401 16.3269C37.4587 18.2678 36.8028 19.6665 35.6047 20.5501C34.4066 21.4338 32.6718 21.8458 30.3677 21.8567C29.2618 21.8621 28.1883 21.8133 27.1475 21.7157C26.1066 21.6181 25.2229 21.4989 24.491 21.3471C24.4477 20.2845 24.4043 19.2273 24.3609 18.1648C25.2338 18.2569 26.0578 18.3274 26.833 18.3654C27.6137 18.4033 28.4974 18.4142 29.484 18.4087C30.3298 18.4033 30.9694 18.2949 31.3923 18.0834C31.8206 17.872 32.032 17.4383 32.0374 16.7769C32.0374 16.5059 32.0429 16.2348 32.0429 15.9637C31.8477 16.1318 31.6309 16.3053 31.3815 16.4842C31.1321 16.6631 30.8502 16.8311 30.5358 16.9884C30.2213 17.1456 29.8581 17.2811 29.4461 17.3895C29.0341 17.5034 28.5624 17.563 28.0257 17.5738C26.73 17.5955 25.7 17.254 24.9193 16.5221C24.1387 15.7957 23.6995 14.6247 23.629 13.0091C23.5803 11.9466 23.5369 10.8894 23.4881 9.82684C23.1249 9.8431 22.7616 9.85935 22.393 9.88104C22.3388 8.82389 22.2846 7.76132 22.2304 6.70417C24.5452 6.58491 26.8601 6.51442 29.175 6.49274C29.1967 8.61246 29.213 10.7322 29.2347 12.8519ZM46.9514 16.7769C46.7942 16.9179 46.5827 17.0697 46.3279 17.2323C46.0731 17.3949 45.7641 17.5359 45.4118 17.6606C45.0594 17.7853 44.6528 17.8829 44.192 17.9533C43.7312 18.0238 43.2216 18.0401 42.6523 17.9967C41.2807 17.8937 40.229 17.5684 39.4809 17.01C38.7327 16.4516 38.3749 15.6818 38.4237 14.7006C38.4834 13.4754 39.2423 12.5754 40.7278 12.0387C42.2132 11.502 44.4739 11.3394 47.4773 11.6484C47.5152 11.2906 47.3959 10.9978 47.1194 10.7756C46.843 10.5533 46.2412 10.3961 45.3142 10.3148C44.3221 10.228 43.3191 10.2063 42.3108 10.2497C41.3024 10.2985 40.3754 10.369 39.5242 10.4665C39.5839 9.35518 39.6435 8.24384 39.7031 7.13248C40.5705 6.99694 41.6331 6.89936 42.8963 6.85599C44.154 6.81262 45.4443 6.85055 46.7617 6.97524C48.1116 7.10535 49.2283 7.3222 50.1066 7.62037C50.9848 7.91854 51.6625 8.29805 52.1504 8.75886C52.6329 9.21967 52.9419 9.75636 53.0774 10.369C53.213 10.9816 53.2292 11.6701 53.1208 12.4399C52.9744 13.4916 52.8335 14.5434 52.6871 15.5951C53.0395 15.6439 53.3919 15.6927 53.7443 15.7469C53.5925 16.7986 53.4407 17.8449 53.2889 18.8966C51.1366 18.5876 48.9844 18.322 46.8267 18.0997C46.8647 17.6497 46.908 17.216 46.9514 16.7769ZM47.2821 13.5729C46.2791 13.4699 45.5473 13.4591 45.1027 13.5296C44.6528 13.6001 44.4196 13.7735 44.398 14.0446C44.3654 14.4566 44.7883 14.7006 45.672 14.7819C46.6532 14.8741 47.1845 14.5162 47.2713 13.6922C47.2713 13.6488 47.2767 13.6109 47.2821 13.5729ZM6.95862 23.6565C8.93196 23.3258 10.9107 23.0385 12.8949 22.7891C13.025 23.8408 13.1551 24.8926 13.2907 25.9497C12.9817 25.9877 12.6672 26.0311 12.3582 26.069C12.6564 28.3243 12.9491 30.5849 13.2473 32.8402C13.372 33.7889 13.3557 34.6184 13.1985 35.3231C13.0413 36.0279 12.754 36.6242 12.3311 37.1176C11.9082 37.6109 11.3661 38.0066 10.6993 38.3157C10.0325 38.6247 9.25182 38.8524 8.35189 39.0096C7.50075 39.1614 6.62791 39.2535 5.7334 39.3023C4.83347 39.3457 4.12871 39.3457 3.6191 39.2807C3.39683 38.2452 3.17455 37.2043 2.95228 36.1689C3.52694 36.1526 4.1504 36.1146 4.81179 36.0496C5.47861 35.9899 6.13457 35.8978 6.7797 35.7839C7.56037 35.643 8.09165 35.4261 8.37356 35.1388C8.65547 34.846 8.75306 34.4069 8.65548 33.8214C8.61211 33.5449 8.56332 33.2739 8.51995 32.9974C8.42236 33.1709 8.29225 33.366 8.12419 33.5883C7.95613 33.8052 7.75012 34.0166 7.51701 34.2172C7.28389 34.4178 7.01283 34.5967 6.70924 34.7647C6.40023 34.9328 6.0641 35.052 5.69545 35.1225C4.31844 35.3882 3.19624 35.1171 2.31257 34.2931C1.42891 33.469 0.78378 32.1896 0.388027 30.4331C-0.0023053 28.6766 0.0410583 27.24 0.550659 26.1178C1.06026 24.9956 2.06862 24.2745 3.57032 23.9872C3.97149 23.9113 4.36182 23.8951 4.73589 23.9384C5.10996 23.9818 5.44608 24.0577 5.75509 24.1607C6.0641 24.2637 6.34059 24.3884 6.58455 24.5402C6.8285 24.6866 7.02908 24.8275 7.1863 24.963C7.10498 24.5239 7.03451 24.0902 6.95862 23.6565ZM5.61413 30.3572C5.69545 30.7909 5.85267 31.0837 6.08578 31.2355C6.3189 31.3927 6.63334 31.4306 7.02909 31.3601C7.42485 31.2897 7.70675 31.1433 7.86939 30.921C8.03745 30.6988 8.08082 30.3681 8.01034 29.9344C7.90192 29.2947 7.79892 28.6604 7.69049 28.0207C7.62001 27.587 7.46279 27.2888 7.22968 27.1316C6.99114 26.9743 6.67128 26.931 6.25927 27.0014C5.85267 27.0719 5.55992 27.2237 5.39186 27.4514C5.2238 27.6791 5.18043 28.0098 5.26175 28.4435C5.3756 29.0887 5.49486 29.7229 5.61413 30.3572ZM21.7587 31.4578C21.6449 31.6204 21.4931 31.8047 21.3033 32.0053C21.1136 32.2059 20.8805 32.3956 20.604 32.5745C20.3275 32.7534 20.0022 32.9107 19.6281 33.0516C19.2541 33.1926 18.8258 33.2847 18.3433 33.3335C17.1777 33.4419 16.2398 33.2847 15.5242 32.8456C14.8086 32.4065 14.3803 31.7017 14.2611 30.7259C14.1093 29.5061 14.608 28.5086 15.779 27.7496C16.9446 26.9906 18.8312 26.4864 21.4172 26.3129C21.3955 25.9497 21.2491 25.6841 20.978 25.5052C20.707 25.3317 20.1757 25.2721 19.3788 25.3317C18.5276 25.4022 17.6765 25.5377 16.8308 25.7383C15.985 25.9389 15.2098 26.1557 14.505 26.378C14.3749 25.2721 14.2502 24.1661 14.1201 23.0602C14.8357 22.7945 15.7248 22.5397 16.7874 22.2958C17.85 22.0572 18.9505 21.8946 20.0835 21.8079C21.2491 21.7211 22.2304 21.7591 23.0164 21.9109C23.8025 22.0627 24.4368 22.3283 24.9193 22.7024C25.3964 23.0764 25.7379 23.559 25.9439 24.139C26.1499 24.7191 26.2638 25.4022 26.2909 26.1774C26.3234 27.24 26.3614 28.2972 26.3939 29.3597C26.6975 29.3489 27.0011 29.3434 27.3047 29.3326C27.3318 30.3952 27.3589 31.4523 27.386 32.5149C25.5373 32.5637 23.6941 32.645 21.8509 32.7697C21.8183 32.336 21.7858 31.8969 21.7587 31.4578ZM21.5419 28.2429C20.6799 28.3025 20.0673 28.4056 19.6986 28.5465C19.33 28.6875 19.1619 28.8935 19.1836 29.1645C19.2215 29.5766 19.6119 29.75 20.3709 29.6904C21.2112 29.6254 21.6015 29.1862 21.5473 28.3622C21.5473 28.3188 21.5473 28.2809 21.5419 28.2429ZM35.0409 29.3543C35.3444 29.3651 35.648 29.376 35.9516 29.3868C35.9896 28.3243 36.0329 27.2671 36.0709 26.2045C36.0871 25.7654 35.995 25.4455 35.7998 25.245C35.5992 25.0444 35.2956 24.9359 34.8836 24.9251C34.4716 24.9142 34.1572 25.001 33.9457 25.1908C33.7343 25.3805 33.6259 25.6949 33.6151 26.1341C33.5934 27.1966 33.5717 28.2538 33.55 29.3163C33.8536 29.3218 34.1572 29.3272 34.4608 29.338C34.4337 30.4006 34.4065 31.4577 34.374 32.5203C32.2326 32.4607 30.0858 32.4553 27.9444 32.5041C27.9227 31.4415 27.901 30.3843 27.8793 29.3218C28.1829 29.3164 28.4865 29.3109 28.7901 29.3055C28.7684 27.8309 28.7467 26.3563 28.725 24.8817C28.4106 24.8872 28.0962 24.8926 27.7872 24.898C27.7655 23.8354 27.7438 22.7783 27.7221 21.7157C29.7171 21.6723 31.7122 21.6723 33.7072 21.7103C33.6964 22.1494 33.6909 22.5885 33.6801 23.0276C33.859 22.8758 34.0542 22.7078 34.2764 22.5289C34.4987 22.3446 34.7589 22.1819 35.0625 22.0356C35.3661 21.8892 35.7077 21.7699 36.0926 21.6723C36.4775 21.5747 36.9166 21.5368 37.41 21.5639C37.9033 21.5856 38.3316 21.6561 38.6894 21.7753C39.0472 21.8946 39.3562 22.0356 39.6164 22.1982C39.8766 22.3608 40.0935 22.5452 40.2669 22.7458C40.4404 22.9463 40.5977 23.1469 40.7278 23.3529C40.9555 23.1849 41.1994 23.0222 41.4596 22.8488C41.7199 22.6807 42.018 22.5289 42.3596 22.4042C42.6957 22.2741 43.0806 22.1819 43.5035 22.1223C43.9263 22.0627 44.4142 22.0572 44.9672 22.1114C46.1599 22.2307 47.0598 22.7132 47.6562 23.5427C48.2525 24.3775 48.4422 25.5973 48.2417 27.202C48.1115 28.2538 47.976 29.3055 47.8459 30.3626C48.1495 30.4006 48.4477 30.4386 48.7513 30.4765C48.6103 31.5282 48.4748 32.5799 48.3338 33.6317C46.2032 33.3498 44.0727 33.1221 41.9313 32.9432C42.018 31.886 42.1048 30.8289 42.1969 29.7717C42.5005 29.7988 42.8041 29.8205 43.1077 29.853C43.2053 28.7959 43.2975 27.7388 43.395 26.6816C43.433 26.2425 43.3625 25.9172 43.1728 25.7058C42.983 25.4943 42.6848 25.3696 42.2728 25.3371C41.8608 25.3046 41.5464 25.3751 41.3241 25.554C41.1018 25.7329 40.9771 26.0419 40.9446 26.481C40.8687 27.5381 40.7928 28.5953 40.7169 29.6579C41.0205 29.6796 41.3241 29.7013 41.6277 29.7284C41.5464 30.7855 41.4597 31.8427 41.3783 32.8998C39.2423 32.7317 37.1009 32.6125 34.9595 32.5474C34.9758 31.4794 35.0083 30.4169 35.0409 29.3543ZM56.7151 23.7433C57.8265 23.9438 58.721 24.2691 59.3932 24.7028C60.0655 25.1365 60.5751 25.6299 60.9166 26.1774C61.2582 26.725 61.4533 27.3159 61.4967 27.9339C61.5455 28.552 61.4967 29.1591 61.3666 29.7555C61.2636 30.2109 61.166 30.6663 61.063 31.1216C58.8457 30.6283 56.6175 30.1838 54.3786 29.7988C54.3731 29.8368 54.3677 29.8747 54.3569 29.9127C54.2756 30.3735 54.3568 30.7422 54.6008 31.0186C54.8393 31.2951 55.3273 31.5011 56.0646 31.6366C56.9645 31.8047 57.7994 31.9023 58.5746 31.9348C59.3499 31.9619 60.0004 31.9565 60.5209 31.9131C60.2986 32.9215 60.0763 33.9353 59.8486 34.9436C59.583 35.0033 59.2848 35.0575 58.9487 35.0954C58.6126 35.1388 58.2385 35.1605 57.821 35.1768C57.4036 35.1876 56.9374 35.1767 56.4224 35.1334C55.9074 35.09 55.3327 35.0141 54.693 34.8948C53.7768 34.7268 52.9636 34.472 52.2534 34.1196C51.5432 33.7672 50.9577 33.3227 50.4915 32.7751C50.0253 32.2276 49.7 31.5879 49.5103 30.8506C49.3205 30.1133 49.2825 29.2675 49.4126 28.3188C49.5373 27.3809 49.7976 26.584 50.1879 25.9172C50.5837 25.2558 51.0987 24.73 51.733 24.345C52.3673 23.9601 53.11 23.7162 53.9557 23.6186C54.796 23.5264 55.7176 23.5644 56.7151 23.7433ZM56.0971 27.1424C55.6905 27.0665 55.3652 27.1099 55.1267 27.2671C54.8882 27.4243 54.7364 27.7171 54.6605 28.1508C54.655 28.1887 54.6496 28.2267 54.6388 28.2646C55.4465 28.4056 56.2543 28.5519 57.0621 28.7037C57.0675 28.6658 57.0783 28.6278 57.0838 28.5899C57.1651 28.1562 57.1217 27.8255 56.9591 27.5978C56.791 27.3701 56.5037 27.2183 56.0971 27.1424ZM22.2575 12.0984C22.2087 11.1551 21.9918 10.3364 21.6069 9.64793C21.2166 8.95942 20.6799 8.39562 19.9859 7.96734C19.292 7.53906 18.4626 7.24089 17.503 7.08367C16.538 6.92645 15.4754 6.90477 14.3099 7.01862C13.1443 7.13246 12.1034 7.36559 11.1872 7.70713C10.271 8.04867 9.51746 8.49863 8.92112 9.05702C8.32477 9.60999 7.90192 10.2714 7.65797 11.025C7.41401 11.7785 7.35978 12.6242 7.49532 13.5567C7.63085 14.5054 7.9236 15.3023 8.3573 15.9529C8.791 16.6034 9.35482 17.1184 10.0433 17.5034C10.7318 17.8883 11.5288 18.1431 12.4341 18.2732C13.3449 18.4033 14.337 18.4087 15.4212 18.3003C16.5055 18.1919 17.4813 17.9913 18.3433 17.6877C19.2107 17.3841 19.9372 16.9829 20.5389 16.4679C21.1353 15.9583 21.5852 15.3403 21.8834 14.6193C22.1816 13.8928 22.3117 13.0579 22.2575 12.0984ZM14.8466 15.6764C14.9008 13.2151 13.6918 12.0062 11.2306 12.0604C13.8111 11.9845 14.8899 10.6726 14.8466 8.44442C15.1285 10.8732 16.435 11.9411 18.4626 12.0604C16.0284 12.0387 14.8249 13.2477 14.8466 15.6764ZM17.8445 4.52481C18.7987 4.51939 19.6878 4.73626 20.4793 5.2567C21.8021 3.93933 23.4014 2.67076 25.2663 1.49976C24.426 1.31543 23.5694 1.08231 22.4418 0.946777C21.1515 2.07982 19.6336 3.32128 17.8445 4.52481Z" fill="url(#paint0_linear)"/>
<defs>
<linearGradient id="paint0_linear" x1="30.8169" y1="0.949922" x2="30.8169" y2="39.3371" gradientUnits="userSpaceOnUse">
<stop stop-color="#FEDD00"/>
<stop offset="1" stop-color="#F7941D"/>
</linearGradient>
</defs>
</svg>
