<svg width="59" height="64" viewBox="0 0 59 64" fill="none" xmlns="http://www.w3.org/2000/svg">
<path d="M43.8 18.1333V19.1333H44.8H55.4667C56.0501 19.1333 56.6097 19.3651 57.0223 19.7777C57.4349 20.1903 57.6667 20.7499 57.6667 21.3333V60.8C57.6667 61.3835 57.4349 61.9431 57.0223 62.3556C56.6097 62.7682 56.0501 63 55.4667 63H3.2C2.61652 63 2.05694 62.7682 1.64437 62.3556C1.23178 61.9431 1 61.3835 1 60.8V3.2C1 2.61652 1.23179 2.05695 1.64437 1.64437C2.05695 1.23179 2.61652 1 3.2 1H41.6C42.1835 1 42.7431 1.23178 43.1556 1.64437C43.5682 2.05695 43.8 2.61652 43.8 3.2V18.1333ZM32 54.3333H33V53.3333V21.3333C33 20.7499 33.2318 20.1903 33.6444 19.7777C34.0569 19.3651 34.6165 19.1333 35.2 19.1333H42.6667H43.6667V18.1333V6.4V5.4H42.6667H2.13333H1.13333V6.4V53.3333V54.3333H2.13333H32ZM42.6667 5.26667H43.6667V4.26667V3.2C43.6667 2.65189 43.4489 2.12623 43.0614 1.73865C42.6738 1.35107 42.1481 1.13333 41.6 1.13333H3.2C2.65189 1.13333 2.12622 1.35107 1.73865 1.73865C1.35107 2.12622 1.13333 2.65189 1.13333 3.2V4.26667V5.26667H2.13333H42.6667ZM2.13333 54.4667H1.13333V55.4667V60.8C1.13333 61.3481 1.35107 61.8738 1.73865 62.2614C2.12623 62.6489 2.65189 62.8667 3.2 62.8667H32.1707H33.6236L33.2209 61.8133L33.2379 61.7688L33.1105 61.4184C33.0382 61.2194 33.0008 61.0095 33 60.7978C33 60.7975 33 60.7971 33 60.7967L33 55.4667V54.4667H32H2.13333ZM56.928 62.2614C57.3156 61.8738 57.5333 61.3481 57.5333 60.8V21.3333C57.5333 20.7852 57.3156 20.2596 56.928 19.872C56.5404 19.4844 56.0148 19.2667 55.4667 19.2667H35.2C34.6519 19.2667 34.1262 19.4844 33.7386 19.872C33.3511 20.2596 33.1333 20.7852 33.1333 21.3333V60.8C33.1333 61.3481 33.3511 61.8738 33.7386 62.2614C34.1262 62.6489 34.6519 62.8667 35.2 62.8667H55.4667C56.0148 62.8667 56.5404 62.6489 56.928 62.2614Z" fill="#666666" stroke="#666666" stroke-width="2"/>
</svg>
